<svg width="631" height="205" viewBox="0 0 631 205" fill="none" xmlns="http://www.w3.org/2000/svg">
<path fill-rule="evenodd" clip-rule="evenodd" d="M183.078 1.00614C179.82 2.20281 178.693 3.29787 105.25 76.6707L32.2215 149.63V120.436C32.2215 87.531 32.2855 88.2159 28.767 83.8902C21.2878 74.6951 6.29189 76.5559 1.22112 87.3071L0 89.8942V141.402V192.909L1.21736 195.496C4.89767 203.312 13.8971 206.955 22.1082 203.952C25.8957 202.567 201.625 27.3967 203.521 23.1181C209.318 10.03 196.441 -3.89717 183.078 1.00614ZM302.969 34.6746C281.167 37.8544 263.861 54.6942 260.12 76.3659C258.826 83.862 259.322 160.49 260.698 165.627C266.335 186.683 282.748 201.103 304.355 203.986C306.753 204.306 318.019 204.434 335.621 204.341L363.139 204.198L365.961 202.881C378.447 197.052 379.256 179.987 367.372 173.153C363.931 171.173 361.816 171.036 334.539 171.03C306.681 171.025 306.269 170.993 301.518 168.564C294.713 165.083 292.786 160.285 292.464 146L292.233 135.781L316.866 135.652L341.501 135.522L344.088 134.301C356.7 128.353 356.621 110.266 343.958 104.418L341.031 103.065L316.689 102.928L292.346 102.79V94.7863C292.346 81.5853 293.772 76.3245 298.508 72.0666C303.377 67.6882 302.242 67.8293 334.68 67.5377C367.297 67.246 365.698 67.4624 370.823 62.6457C380.235 53.8005 375.615 37.288 362.998 34.6708C359.998 34.048 307.238 34.0518 302.969 34.6746ZM425.23 34.6633C405.698 37.5082 389.507 51.9999 383.755 71.7843L382.455 76.253L382.306 117.103C382.174 152.508 382.253 158.524 382.891 162.221C386.31 182.03 400.604 197.481 420.526 202.898L425.23 204.178L455.57 204.189L485.91 204.198L488.608 202.934C501.64 196.826 501.623 178.637 488.58 172.522L485.91 171.271L457.687 171.017C439.453 170.854 428.963 170.586 428.048 170.259C418.135 166.729 415.594 161.922 415.235 146.004L415.004 135.789L439.637 135.655L464.272 135.522L466.925 134.218C479.134 128.223 479.142 110.608 466.936 104.599L463.824 103.065L439.469 102.928L415.117 102.79V94.7863C415.117 81.6418 416.575 76.2963 421.322 72.0271C426.146 67.6901 425.04 67.8274 457.463 67.5546L485.932 67.3157L489.071 65.769C501.739 59.5317 501.448 41.672 488.58 35.6398L485.91 34.3886L456.981 34.319C441.071 34.2813 426.782 34.4356 425.23 34.6633ZM542.415 35.3482C497.85 44.2893 486.373 102.403 524.194 127.61C534.791 134.673 538.087 135.369 562.818 135.759C574.636 135.945 583.387 136.274 584.221 136.566C599.158 141.77 602.144 159.794 589.461 168.187C584.748 171.307 586.044 171.196 550.823 171.482C519.193 171.738 518.812 171.753 516.611 172.771C503.715 178.726 503.442 196.397 516.148 202.652L519.288 204.198H553.401C591.717 204.198 590.437 204.302 599.657 200.484C639.747 183.889 641.674 127.794 602.833 108.017C594.302 103.675 591.305 103.233 567.992 102.864C545.585 102.512 546.17 102.602 541.572 98.7695C532.305 91.0495 532.711 77.8204 542.432 70.8398C546.731 67.7522 545.873 67.8293 579.046 67.5603L609.151 67.3157L611.821 66.0644C624.593 60.0773 624.964 42.1669 612.444 36.0142L610.092 34.859L577.87 34.7799C552.108 34.716 545 34.8289 542.415 35.3482ZM218.73 37.5308C217.955 37.8243 216.472 38.5825 215.437 39.2147C211.281 41.7548 75.6552 178.073 74.2233 181.149C69.0622 192.239 76.5132 204.116 88.668 204.176C96.7511 204.217 91.383 208.957 153.23 147.15L207.676 92.7335L207.685 129.181C207.691 149.225 207.887 166.957 208.122 168.584C210.732 186.628 237.197 186.86 240.144 168.865C241.023 163.506 240.735 52.8484 239.833 49.2359C237.583 40.212 227.067 34.3792 218.73 37.5308ZM181.334 134.31C166.186 137.571 168.348 159.747 183.814 159.747C193.261 159.747 199.228 151.067 195.899 142.169C193.811 136.587 187.239 133.04 181.334 134.31Z" fill="white"/>
</svg>
